# AST/ASF file generated using VICON BodyLanguage
# -----------------------------------------------
:version 1.10
:name VICON
:units
  mass 1.0
  length 0.45
  angle deg
:documentation
   .ast/.asf automatically generated from VICON data using
   VICON BodyBuilder and BodyLanguage model FoxedUp or BRILLIANT.MOD
:root
   order TX TY TZ RX RY RZ
   axis XYZ
   position 0 0 0  
   orientation 0 0 0 
:bonedata
  begin
     id 1 
     name lhipjoint
     direction 0.499407 -0.589134 0.635228 
     length 2.99786 
     axis 0 0 0  XYZ
  end
  begin
     id 2 
     name lfemur
     direction 0.34202 -0.939693 0  
     length 6.89561  
     axis 0 0 20  XYZ
    dof rx ry rz
    limits (-160.0 20.0)
           (-70.0 70.0)
           (-60.0 70.0)
  end
  begin
     id 3 
     name ltibia
     direction 0.34202 -0.939693 0   
     length 8.00494   
     axis 0 0 20   XYZ
    dof rx
    limits (-10.0 170.0)
  end
  begin
     id 4 
     name lfoot
     direction 0.0680929 -0.194353 0.978565   
     length 2.06695   
     axis -90 7.62852e-016 20   XYZ
    dof rx rz
    limits (-45.0 90.0)
           (-70.0 20.0)
  end
  begin
     id 5 
     name ltoes
     direction 1.5346e-011 -4.21731e-011 1   
     length 1.04539   
     axis -90 7.62852e-016 20   XYZ
    dof rx
    limits (-90.0 20.0)
  end
  begin
     id 6 
     name rhipjoint
     direction -0.347526 -0.63762 0.687508   
     length 2.76989  
     axis 0 0 0  XYZ 
  end
  begin
     id 7 
     name rfemur
     direction -0.34202 -0.939693 0   
     length 6.97892   
     axis 0 0 -20   XYZ
    dof rx ry rz
    limits (-160.0 20.0)
           (-70.0 70.0)
           (-70.0 60.0)
  end
  begin
     id 8 
     name rtibia
     direction -0.34202 -0.939693 0   
     length 7.77056   
     axis 0 0 -20   XYZ
    dof rx
    limits (-10.0 170.0)
 end
 begin
     id 9 
     name rfoot
     direction -0.102685 -0.282124 0.953867   
     length 2.15099  
     axis -90 -7.62852e-016 -20   XYZ
    dof rx rz
    limits (-45.0 90.0)
           (-20.0 70.0)
  end
  begin
     id 10 
     name rtoes
     direction -0.000106751 -0.00118973 0.999999   
     length 1.0765   
     axis -90 -7.62852e-016 -20   XYZ
    dof rx
    limits (-90.0 20.0)
  end
  begin
     id 11 
     name lowerback
     direction -0.0190651 0.988667 0.148909   
     length 1.90627   
     axis 0 0 0   XYZ
    dof rx ry rz
    limits (-20.0 45.0)
           (-30.0 30.0)
           (-30.0 30.0)
  end
  begin
     id 12 
     name upperback
     direction -0.0180344 0.995767 -0.0901298   
     length 1.88167   
     axis 0 0 0   XYZ
    dof rx ry rz
    limits (-20.0 45.0)
           (-30.0 30.0)
           (-30.0 30.0)
  end
  begin
     id 13 
     name thorax
     direction -0.00329861 0.986394 -0.164366   
     length 1.91528   
     axis 0 0 0   XYZ
    dof rx ry rz
    limits (-20.0 45.0)
           (-30.0 30.0)
           (-30.0 30.0)
  end
  begin
     id 14 
     name lowerneck
     direction -0.0177752 0.978637 -0.204826   
     length 2.09812   
     axis 0 0 0   XYZ
    dof rx ry rz
    limits (-20.0 45.0)
           (-30.0 30.0)
           (-30.0 30.0)
  end
  begin
     id 15 
     name upperneck
     direction 0.108032 0.994134 0.00511541   
     length 2.11937   
     axis 0 0 0   XYZ
    dof rx ry rz
    limits (-20.0 45.0)
           (-30.0 30.0)
           (-30.0 30.0)
  end
  begin
     id 16
     name head
     direction 0.0423659 0.998938 0.0181058  
     length 2.14816  
     axis 0 0 0   XYZ
    dof rx ry rz
    limits (-20.0 45.0)
           (-30.0 30.0)
           (-30.0 30.0)
  end
  begin
     id 17 
     name lclavicle
     direction 0.869509 0.396908 0.293968  
     length 4.73713  
     axis 0 0 0   XYZ
    dof ry rz
    limits (-20.0 10.0)
           (0.0 20.0)
  end
  begin
     id 18 
     name lhumerus
     direction 1 -4.49e-011 3.63829e-027   
     length 4.72096   
     axis 180 -30 -90   XYZ
    dof rx ry rz
    limits (-60.0 90.0)
           (-90.0 90.0)
           (-90.0 90.0)
  end
  begin
     id 19
     name lradius
     direction 1 -4.48932e-011 7.19196e-027   
     length 3.18148   
     axis 180 -30 -90   XYZ
    dof rx
    limits (-10.0 170.0)
  end
  begin
     id 20
     name lwrist
     direction 1 -4.48995e-011 1.85462e-026   
     length 1.59074   
     axis -1.20349e-014 90 90   XYZ
    dof ry
    limits (-180.0 0.0)
 end
  begin
     id 21 
     name lhand
     direction 1 -4.48943e-011 3.70924e-026   
     length 0.848715   
     axis -2.36681e-014 90 90   XYZ
    dof rx rz
    limits (-90.0 90.0)
           (-45.0 45.0)
  end
  begin
     id 22 
     name lfingers
     direction 1 -4.48949e-011 7.41849e-026   
     length 0.684256   
     axis -4.73363e-014 90 90   XYZ
    dof rx
    limits (0.0 90.0)
  end
  begin
     id 23
     name lthumb
     direction 0.707107 -6.35018e-011 0.707107   
     length 0.982458   
     axis -90 45 2.85299e-015   XYZ
    dof rx rz
    limits (-45.0 45.0)
           (-45.0 45.0)
  end
  begin
     id 24 
     name rclavicle
     direction -0.923214 0.372787 0.0932992   
     length 4.28107  
     axis 0 0 0   XYZ 
    dof ry rz
    limits (-10.0 20.0)
           (-20.0 0.0)
  end
  begin
     id 25 
     name rhumerus
     direction -1 -4.48968e-011 6.59881e-018  
     length 4.76918   
     axis 180 30 90   XYZ
    dof rx ry rz
    limits (-90.0 60.0)
           (-90.0 90.0)
           (-90.0 90.0)
  end
  begin
     id 26 
     name rradius
     direction -1 0.000264575 -0.000152753   
     length 3.36438   
     axis 180 30 90   XYZ
    dof rx
    limits (-10.0 170.0)
  end
  begin
     id 27 
     name rwrist
     direction -1 -4.86632e-005 -0.00030086   
     length 1.68219   
     axis -1.20349e-014 -90 -90   XYZ
    dof ry
    limits (-180.0 0.0)
  end
  begin
     id 28
     name rhand
     direction -1 -4.48915e-011 3.70924e-026   
     length 0.767694   
     axis -2.36681e-014 -90 -90   XYZ
    dof rx rz
    limits (-90.0 90.0)
           (-45.0 45.0)
  end
  begin
     id 29
     name rfingers
     direction -1 -4.49015e-011 7.41849e-026   
     length 0.618935   
     axis -4.73363e-014 -90 -90   XYZ
    dof rx
    limits (0.0 90.0)
  end
  begin
     id 30
     name rthumb
     direction -0.707107 -6.34859e-011 0.707107   
     length 0.88867   
     axis -90 -45 -2.85299e-015   XYZ
    dof rx rz
    limits (-45.0 45.0)
           (-45.0 45.0)
  end
:hierarchy
  begin
    root lhipjoint rhipjoint lowerback
    lhipjoint lfemur
    lfemur ltibia
    ltibia lfoot
    lfoot ltoes
    rhipjoint rfemur
    rfemur rtibia
    rtibia rfoot
    rfoot rtoes
    lowerback upperback
    upperback thorax
    thorax lowerneck lclavicle rclavicle
    lowerneck upperneck
    upperneck head
    lclavicle lhumerus
    lhumerus lradius
    lradius lwrist
    lwrist lhand lthumb
    lhand lfingers
    rclavicle rhumerus
    rhumerus rradius
    rradius rwrist
    rwrist rhand rthumb
    rhand rfingers
  end

#!OML:ASF C:\Documents and Settings\Administrator\Desktop\New Folder (2)\VR_Jason.ASF
:FULLY-SPECIFIED
:DEGREES
355
root -0.088739 17.5358 -0.701042 11.5725 0.828002 -0.472999
lowerback -26.3846 1.89946 -0.739539
upperback 7.656 3.60487 -3.12676
thorax 24.0448 1.66416 -1.61239
lowerneck 29.0768 -3.99865 -6.50858
upperneck 2.31941 -6.28675 15.5768
head -3.11453 -4.16124 6.75226
rclavicle -1.98785e-015 -2.38542e-015
rhumerus 51.7119 -2.18295 -75.514
rradius 25.2035
rwrist -15.3098
rhand -39.791 28.8325
rfingers 7.12502
rthumb -12.7663 -0.757156
lclavicle -1.98785e-015 -2.38542e-015
lhumerus 49.3796 -2.5469 79.0069
lradius 55.8552
lwrist 34.229
lhand -30.3658 37.7473
lfingers 7.12502
lthumb -3.67067 67.6954
rfemur -20.5144 -9.44597 11.9431
rtibia 25.8686
rfoot -11.2649 -19.8595
rtoes -15.1492
lfemur -24.9772 -1.03808 -14.7513
ltibia 31.3038
lfoot -19.1806 11.7608
ltoes -12.7881
356
root -0.0566387 17.5306 -0.690985 11.434 0.423879 -0.504623
lowerback -26.3093 1.91771 -0.760854
upperback 7.56651 3.63786 -3.16184
thorax 23.8769 1.6787 -1.62815
lowerneck 28.1694 -4.29622 -6.19933
upperneck 3.18038 -6.66969 15.2728
head -2.69711 -4.2769 6.5663
rclavicle 2.42517e-014 -3.18055e-015
rhumerus 50.1944 5.84857 -64.2944
rradius 27.7638
rwrist -20.4059
rhand -40.0309 29.4313
rfingers 7.12502
rthumb -12.9976 -0.14381
lclavicle 2.42517e-014 -3.18055e-015
lhumerus 49.0458 -6.40174 71.4411
lradius 55.545
lwrist 36.9049
lhand -29.1273 38.3062
lfingers 7.12502
lthumb -2.47469 68.2716
rfemur -20.3064 -9.24062 11.8439
rtibia 25.7071
rfoot -11.0719 -19.6894
rtoes -14.9694
lfemur -24.7742 -0.737522 -14.8802
ltibia 31.4792
lfoot -19.3502 11.8997
ltoes -13.0209
357
root -0.0220879 17.5256 -0.679086 11.3148 0.147041 -0.67914
lowerback -26.0178 1.98008 -0.454157
upperback 7.39816 3.61835 -3.2728
thorax 23.5022 1.73199 -1.94727
lowerneck 28.4985 -4.37492 -5.98327
upperneck 3.10595 -6.69451 15.5038
head -2.76524 -4.3184 6.62829
rclavicle -9.14409e-015 -1.66979e-014
rhumerus 50.0281 12.7397 -54.3851
rradius 31.9739
rwrist -24.7743
rhand -37.3524 26.1909
rfingers 7.12502
rthumb -10.4146 -3.5312
lclavicle -9.14409e-015 -1.66979e-014
lhumerus 48.8633 -10.5191 63.0351
lradius 56.6921
lwrist 40.2191
lhand -28.2529 39.4973
lfingers 7.12502
lthumb -1.63021 69.4708
rfemur -20.0571 -9.20811 11.9139
rtibia 25.527
rfoot -10.9181 -19.4158
rtoes -14.7887
lfemur -24.6256 -0.492022 -14.8448
ltibia 31.6733
lfoot -19.5551 11.9607
ltoes -13.0723
358
root 0.0129248 17.5222 -0.67125 11.2731 -0.202468 -0.926905
lowerback -27.1701 1.98118 -0.488176
upperback 8.29018 3.65479 -3.00295
thorax 25.4446 1.69914 -1.56662
lowerneck 27.4645 -4.58727 -5.91636
upperneck 2.32626 -6.84675 15.7169
head -2.85061 -4.38882 6.67108
rclavicle -1.98785e-015 -8.74653e-015
rhumerus 51.9331 16.9665 -44.7561
rradius 37.3218
rwrist -27.5286
rhand -36.8733 24.8928
rfingers 7.12502
rthumb -9.95237 -4.85197
lclavicle -1.98785e-015 -8.74653e-015
lhumerus 50.691 -13.1983 54.8065
lradius 58.799
lwrist 43.1331
lhand -27.6824 40.9211
lfingers 7.12502
lthumb -1.07913 70.8981
rfemur -19.9466 -8.92001 12.0381
rtibia 25.3852
rfoot -10.8685 -19.189
rtoes -14.2992
lfemur -24.5763 -0.208796 -14.7171
ltibia 31.8562
lfoot -19.8314 11.9601
ltoes -13.1402
359
root 0.0405606 17.5195 -0.667199 11.2616 -0.53467 -1.11504
lowerback -26.5586 1.9226 -0.544538
upperback 7.97906 3.53804 -2.91464
thorax 24.5993 1.64031 -1.49996
lowerneck 27.842 -4.5907 -6.06659
upperneck 2.23767 -6.88115 16.0738
head -2.91591 -4.44731 6.83857
rclavicle 1.59028e-014 -1.74931e-014
rhumerus 51.8392 21.3349 -37.4068
rradius 43.5854
rwrist -29.5828
rhand -36.5215 23.7825
rfingers 7.12502
rthumb -9.61297 -5.97816
lclavicle 1.59028e-014 -1.74931e-014
lhumerus 50.7943 -16.538 46.4531
lradius 61.9063
lwrist 46.0609
lhand -27.0204 42.6459
lfingers 7.12502
lthumb -0.439769 72.6252
rfemur -19.8984 -8.21883 12.094
rtibia 25.296
rfoot -10.8565 -19.334
rtoes -13.8115
lfemur -24.5776 0.168514 -14.628
ltibia 32.0229
lfoot -20.0123 11.922
ltoes -13.6724
360
root 0.0573657 17.5137 -0.670254 11.1908 -0.715853 -1.01216
lowerback -25.9699 1.73487 -1.02995
upperback 7.89431 3.42528 -2.86932
thorax 24.0757 1.52295 -1.23927
lowerneck 27.7312 -4.63224 -6.25289
upperneck 2.16908 -6.96629 16.5764
head -2.90115 -4.52153 7.041
rclavicle -1.59028e-014 -9.54166e-015
rhumerus 52.1314 24.6891 -30.2243
rradius 50.321
rwrist -32.1372
rhand -37.1347 24.3241
rfingers 7.12502
rthumb -10.2046 -5.40837
lclavicle -1.59028e-014 -9.54166e-015
lhumerus 51.4801 -19.2995 37.9716
lradius 65.9382
lwrist 49.0696
lhand -26.1472 43.8618
lfingers 7.12502
lthumb 0.403594 73.8412
rfemur -19.8015 -7.29471 11.8567
rtibia 25.2551
rfoot -10.9606 -19.9144
rtoes -13.2773
lfemur -24.5505 0.455703 -14.7934
ltibia 32.1507
lfoot -20.1188 11.7538
ltoes -14.3608
361
root 0.0802684 17.508 -0.665074 11.1134 -0.907368 -0.899429
lowerback -25.4125 1.58624 -1.47326
upperback 7.88965 3.3489 -2.8174
thorax 23.6919 1.42665 -0.976768
lowerneck 27.1288 -4.7614 -6.4597
upperneck 2.3036 -7.19041 17.0863
head -2.73862 -4.63867 7.22876
rclavicle 9.54166e-015 4.77083e-015
rhumerus 52.8446 27.2067 -22.9624
rradius 57.4344
rwrist -35.6848
rhand -37.5383 25.1018
rfingers 7.12502
rthumb -10.5939 -4.61119
lclavicle 9.54166e-015 4.77083e-015
lhumerus 52.2725 -21.6074 29.9564
lradius 70.8215
lwrist 52.1325
lhand -26.248 44.3553
lfingers 7.12502
lthumb 0.306177 74.3348
rfemur -19.727 -6.77921 11.6171
rtibia 25.2463
rfoot -10.8886 -20.19
rtoes -13.2939
lfemur -24.4397 0.59503 -14.9872
ltibia 32.2269
lfoot -20.3999 11.5484
ltoes -14.3147
362
root 0.111637 17.5088 -0.645854 11.1275 -1.19989 -0.924312
lowerback -25.0122 1.51914 -1.68548
upperback 7.81856 3.29353 -2.73712
thorax 23.3262 1.36993 -0.797996
lowerneck 28.0597 -4.66411 -7.06791
upperneck 1.34501 -7.10081 18.1966
head -3.13784 -4.73515 7.77689
rclavicle -2.38542e-015 5.56597e-015
rhumerus 53.239 29.192 -16.3386
rradius 64.9174
rwrist -38.385
rhand -37.2264 24.2796
rfingers 7.12502
rthumb -10.2931 -5.44858
lclavicle -2.38542e-015 5.56597e-015
lhumerus 52.974 -23.2996 22.9341
lradius 75.9178
lwrist 53.0869
lhand -24.3666 44.3559
lfingers 7.12502
lthumb 2.12335 74.3251
rfemur -19.7299 -6.68429 11.5252
rtibia 25.2053
rfoot -10.7386 -20.0058
rtoes -13.5661
lfemur -24.3641 0.785205 -15.1093
ltibia 32.2957
lfoot -20.4676 11.8158
ltoes -15.8052
363
root 0.143697 17.5121 -0.625198 11.2215 -1.48586 -0.968389
lowerback -24.8865 1.46777 -1.79354
upperback 7.83689 3.24984 -2.70691
thorax 23.2646 1.33455 -0.724191
lowerneck 28.6141 -4.63974 -7.34557
upperneck 0.459453 -7.01733 18.9378
head -3.48022 -4.79666 8.13141
rclavicle 3.18055e-015 2.46493e-014
rhumerus 52.7582 30.5574 -11.2322
rradius 72.2766
rwrist -39.1638
rhand -36.942 23.138
rfingers 7.12502
rthumb -10.0187 -6.6035
lclavicle 3.18055e-015 2.46493e-014
lhumerus 53.2604 -24.3016 16.8443
lradius 81.4415
lwrist 53.2284
lhand -22.6453 44.3696
lfingers 7.12502
lthumb 3.78561 74.3157
rfemur -19.7521 -6.56674 11.4596
rtibia 25.0773
rfoot -10.6956 -19.9602
rtoes -13.7899
lfemur -24.4004 0.938505 -15.2172
ltibia 32.3799
lfoot -20.4707 12.3122
ltoes -17.7201
364
root 0.180765 17.5134 -0.607777 11.4165 -1.79711 -1.12093
lowerback -24.8561 1.45595 -1.70592
upperback 7.90244 3.19128 -2.64478
thorax 23.3365 1.31652 -0.727489
lowerneck 28.5856 -4.6679 -7.62507
upperneck -0.0856751 -7.04226 19.524
head -3.62477 -4.86647 8.40123
rclavicle -4.17448e-014 3.49861e-014
rhumerus 51.7524 31.4328 -7.24134
rradius 79.1444
rwrist -39.1776
rhand -35.5827 23.019
rfingers 7.12502
rthumb -8.70709 -6.78145
lclavicle -4.17448e-014 3.49861e-014
lhumerus 52.1762 -24.9541 12.5298
lradius 87.0167
lwrist 52.8954
lhand -21.3036 43.9574
lfingers 7.12502
lthumb 5.08124 73.8764
rfemur -19.8645 -6.53342 11.5099
rtibia 24.8679
rfoot -10.6641 -19.9177
rtoes -14.1563
lfemur -24.5682 1.08594 -15.2115
ltibia 32.4835
lfoot -20.5468 12.5723
ltoes -17.9555
365
root 0.219577 17.5182 -0.584277 11.6459 -2.11952 -1.30386
lowerback -24.7028 1.45534 -1.57412
upperback 7.92832 3.13029 -2.60388
thorax 23.2834 1.3086 -0.784653
lowerneck 28.0547 -4.80884 -7.71943
upperneck -0.286719 -7.20621 19.8542
head -3.58096 -4.95421 8.52099
rclavicle 5.56597e-015 -3.02153e-014
rhumerus 50.3047 32.194 -4.07913
rradius 85.5343
rwrist -38.1837
rhand -33.1559 23.0183
rfingers 7.12502
rthumb -6.3647 -6.8661
lclavicle 5.56597e-015 -3.02153e-014
lhumerus 50.1504 -25.6391 9.26587
lradius 92.6562
lwrist 52.604
lhand -20.7311 43.1909
lfingers 7.12502
lthumb 5.63394 73.0961
rfemur -20.0047 -6.55473 11.5857
rtibia 24.6634
rfoot -10.6035 -19.8332
rtoes -14.7079
lfemur -24.7379 1.30294 -15.1846
ltibia 32.5844
lfoot -20.6876 12.6961
ltoes -17.4364
